
<svg width="200" height="190" xmlns="http://www.w3.org/2000/svg" viewBox="0 0 1284 1222" xml:space="preserve">
    <path d="M899 1223c-298.167 0-595.833-.008-893.5.093-3.75.001-4.594-.844-4.593-4.593.1-404.333.1-808.667 0-1213C.907 1.75 1.751.906 5.5.907c425 .099 850 .099 1275 0 3.749 0 4.594.844 4.593 4.593-.099 404.333-.099 808.667 0 1213 0 3.749-.843 4.598-4.593 4.594-127-.113-254-.094-381.5-.094z"/>
    <path fill="#FFF" d="M604.812 512.31c8.47 5.62 16.804 10.827 26.289 13.64 28.063 8.32 54.509 4.83 78.903-11.6 4.02-2.709 6.06-3.305 8.214 1.944 1.747 4.255 4.83 7.979 7.448 11.852 1.408 2.082.8 3.487-1.087 4.652-15.593 9.62-31.858 17.166-50.441 19.329-19.013 2.212-37.435.636-55.287-6.169-12.103-4.614-23.097-11.125-33.108-19.544-12.7-10.68-22.274-23.586-29.177-38.459-5.166-11.128-8.283-22.84-9.751-35.194-2.23-18.772.595-36.638 7.253-54.012 4.226-11.028 10.21-21.097 17.82-30.287 8.755-10.574 18.986-19.158 30.91-25.85 1.878-1.054 2.273-2.911 2.253-5.092-.108-11.495.069-22.995-.128-34.488-.055-3.214.737-4.195 4.057-4.121 8.016.177 8.02-.009 8.02 8.073 0 8.165.033 16.33-.019 24.493-.017 2.752-.268 4.171 3.705 2.742 9.889-3.558 20.096-6.044 30.773-6.272 15.287-.327 30.353.364 44.874 5.939 2.726 1.047 3.88 2.04 3.742 5.053a188.368 188.368 0 0 0-.007 16.989c.153 3.428-1.533 3.826-3.87 2.713-11.098-5.287-22.953-7.834-35.034-8.438-8.384-.42-16.905.84-25.076 3.252-5.675 1.676-11.4 3.288-16.563 6.346-1.993 1.18-3.847 10.84-2.142 11.965 1.49.984 2.87-.333 4.077-.978 6.988-3.74 14.266-6.3 22.102-7.95 14.81-3.121 29.116-1.722 43.021 3.487 16.889 6.327 30.053 17.297 39.51 32.881 9.346 15.4 12.638 32.189 10.726 49.62-3.527 32.162-26.584 59.593-59.336 67.16-21.899 5.06-42.537 1.853-61.676-10.047-3.293-2.047-6.275-4.602-9.35-6.987-.904-.7-1.518-1.573-1.494-2.932.095-5.26.039-10.524.039-17.061 19.577 22.274 42.58 31.837 70.91 24.56 16.228-4.17 28.996-13.762 38.041-27.752 21.455-33.18 10.066-71.934-19.258-91.232-28.408-18.694-65.4-13.53-89.446 16.294v-31.378c-6.793 3.089-10.769 8.112-14.7 12.731-7.1 8.345-12.844 17.682-16.34 28.226-4.405 13.286-6.25 26.674-4.383 40.794 2.885 21.827 12.41 39.938 28.02 55.108 2.105 2.047 4.472 3.827 6.966 6z"/>
    <path fill="#FFF" d="M454.629 341.005c9.775 4.034 13.404 11.219 13.499 21.285.14 15.03-3.902 29.239-7.615 43.476-4.25 16.3-6.273 32.729-5.46 49.514.11 2.276.936 4.517 1.71 8.049 1.474-4.21 2.1-7.347 3.584-10.004 6.493-11.622 21.677-11.096 31.04-2.413 6.981 6.473 9.574 15.131 11.587 23.996 2.2 9.686 3.634 19.463 4.118 29.432.626 12.934 1.172 25.946 3.08 38.727 2.983 19.988 11.834 36.878 28.041 49.906 11.447 9.202 24.15 15.808 38.262 22.666-2.421-5.22-4.544-9.304-5.702-13.93-3.801-15.189 3.925-26.443 18.58-27.889 3.93-.387 7.572-.84 11.475.116 8.324 2.04 13.089 6.848 13.172 13.861.117 9.85-3.449 14.504-13.188 16.907 2.92 5.837 7.592 10.03 12.915 13.143 10.34 6.047 21.68 8.77 33.718 9.284 7.031.3 13.96.524 21.017.015 11.722-.846 23.297-2.381 34.762-4.846 1.51-.324 2.899-.338 5.367.142-11.525 3.204-22.052 6.22-33.078 7.729-11.398 1.56-22.763 3.183-34.255 2.77-26.087-.937-51.244-5.957-75.21-16.834-18.376-8.341-35.107-18.977-50.533-31.94-8.417-7.072-15.707-15.223-23.587-22.802-5.569-5.356-12.08-9.107-19.127-12.006-1.81-.744-3.748-1.285-3.884 2.194-.276 7.064-2.928 10.756-7.516 11.441-6.412.957-13.193-2.917-15.326-8.799-2.801-7.723-.382-16.116 4.614-20.074 5.838-4.626 11.513-6.228 21.764-1.341 1.631-1.723-.071-3.147-.709-4.317-10.164-18.664-16.329-38.748-20.617-59.393-3.454-16.63-2.653-33.636-1.906-50.44.638-14.343 4.272-28.493 3.797-42.996-.207-6.327-2.503-9.319-8.935-10.593 2.806 5.302 4.703 10.315.71 15.77-5.363 7.327-16.336 6.808-20.846-1.208-5.142-9.138-4.205-18.2 1.157-26.63 5.67-8.915 14.003-13.6 24.922-13.036 1.54.08 2.821.594 4.603 1.068zm49.503-24.989c-7.468 2.989-14.923 5.225-20.543 11.056 3.219-7.407 8.18-13.464 13.27-19.323 12.475-14.36 26.944-26.547 43.27-36.227 20.252-12.006 41.774-21.219 64.831-26.523 11.086-2.55 22.44-4.26 32.124-10.981 4.353-3.021 6.836-7.343 6.714-12.28-.114-4.6-3.422-7.972-7.973-9.338-2.09-.627-4.883-1.914-4.897 2.633-.032 11.08-6.935 12.282-14.792 10.554-12.667-2.787-12.967-13.488-6.908-22.792 9.265-14.228 26.954-17.56 41.586-10.855 9.923 4.547 15.79 20.21 13.525 30.705-1.423 6.593-4.904 11.675-8.458 17.795 8.495-1.394 16.298-2.878 24.16-3.924 18.84-2.506 37.814-5.41 56.45.629 8.434 2.733 14.161 9.19 16.378 17.921 1.215 4.786-.948 9.065-4.723 12.173-1.527 1.257-2.678 1.452-.81 3.777 6.644 8.265 9.674 18.166 10.508 28.525.533 6.618-2.305 12.883-6.753 17.648-7.018 7.521-18.958 12.505-29.82 5.872-5.046-3.081-7.148-11.815-4.26-18.915 2.12-5.215 8.21-8.443 13.739-6.69 2.487.788 2.834.453 3.48-1.932 1.798-6.626-.416-12.556-3.373-17.97-8.007-14.665-22.075-21.481-37.041-26.41-9.522-3.137-19.381-5.434-29.593-5.153-1.31.036-2.492-.192-3.79-.781-2.376-1.08-4.678.804-7.161.921-5.25.249-1.126 4.05-.99 5.242 1.499 13.12-13.223 18.917-22.284 17.31-13.038-2.311-25.617-6.964-38.944-7.664-16.233-.854-30.492 4.612-43.496 13.923-.757.542-1.489 1.12-2.305 1.735 3.975.871 8.793 1.013 9.603 5.888 1.087 6.533-1.49 12.298-6.663 16.355-10.779 8.455-24.161 10.827-36.731 15.062-2.275.766-4.612 1.35-7.33 2.034zM839.35 593.242c-9.62 9.333-23.07 5.809-27.183-2.705-3.97-8.216.45-15.513 9.526-15.537 1.273-.003 2.546 0 4.035 0-5.075-6.755-14.965-8.234-24.013-3.965-10.174 4.8-18.577 12.23-27.767 18.495-13.32 9.082-27.468 16.7-42.125 23.383-.148.067-.504-.32-1.327-.878 5.08-2.781 9.997-5.245 14.686-8.087 10.143-6.15 19.6-13.174 28.577-21.017 19.544-17.073 34.282-37.632 45.536-60.773 8.038-16.527 13.25-34.015 16.803-52.08 3.246-16.502 3.46-33.135 2.712-49.734-.559-12.408-4.103-24.494-9.124-35.865-6.164-13.962-13.865-27.154-24.831-37.97-5.834-5.754-12.546-10.582-20.519-13.623 1.999 11.602-2.331 17.442-11.962 18.24-12.913 1.071-17.57-11.254-14.822-21.11 5.33-19.111 27.923-23.754 43.09-9.833 11.126 10.213 17.508 23.51 23.279 37.09 2.372 5.582 4.78 11.19 6.268 17.133.684 2.73 2.086 3.263 4.186.78 2.66-3.146 5.773-5.652 10.157-6.217 9.619-1.239 14.031 5.688 16.307 14.679 4.571 18.06 2.274 35.755-4.942 52.876-2.062 4.894-4.69 9.428-8.462 14.152 3.997.526 7.534.28 10.75 1.96 7.94 4.147 8.593 14.244 5.141 22.453-4.303 10.235-11.256 18.523-20.092 25.29-2.838 2.173-4.93 5.249-8.437 7.12 1 .647 1.597 1.285 2.308 1.455 8.623 2.067 10.656 6.61 7.001 14.563-5.456 11.874-16.53 17.295-26.889 24.225 13.051 2.04 26.007 4.693 30.253 19.4 2.845 9.85.305 18.922-8.12 26.1zM289.008 875.028c-19.726-5.512-32.55-18.032-37.804-37.138-5.028-18.286-1.246-35.103 11.863-49.547 11.844-13.049 26.648-18.558 43.777-17.226 23.48 1.825 43.14 18.642 46.959 41.957 3.175 19.384.62 39.117 1.186 58.686.027.951.24 2.175-1.26 2.194a396.96 396.96 0 0 1-11.497-.006c-1.503-.025-1.211-1.29-1.22-2.226-.028-2.666.036-5.333-.039-7.998-.025-.885.56-2.133-.722-2.564-1.19-.4-1.708.802-2.344 1.462-10.126 10.507-22.968 14.121-37.013 14.284-3.824.044-7.751-.532-11.886-1.878zM606 837c0 11.492-.093 22.485.064 33.475.04 2.792-.697 3.585-3.546 3.603-10.234.066-10.231.187-10.524-10.054-.017-.607-.105-1.212-.173-1.956-4.115.481-5.642 4.145-8.495 5.842-11.368 6.762-23.225 10.294-36.884 8.321-11.764-1.7-21.704-6.313-29.922-14.384-10.195-10.01-15.514-22.042-15.75-36.88-.311-19.624 7.612-34.664 23.26-45.197 15.596-10.497 33.019-11.973 50.448-4.501 17.856 7.654 28.24 21.757 31.327 40.774 1.08 6.654.187 13.629.195 20.957zm388.76-49.738c9.294 9.635 14.266 20.7 14.246 33.865-.025 16.166-.102 32.333.073 48.497.036 3.318-.52 4.563-4.218 4.48-9.747-.218-9.75-.016-9.865-9.748-.008-.664-.063-1.327-.146-2.98-13.502 11.194-27.916 17.373-45.595 14.806-17.825-2.588-30.785-11.901-39.053-27.004-13.44-24.552-5.896-52.108 13.212-66.828 22.59-17.404 53.095-14.55 71.346 4.912zM689.05 730c8.95 0 8.95 0 8.95 8.538 0 10.829.116 21.66-.06 32.486-.065 4.1.802 4.445 4.786 3.157 21.43-6.93 40.975-3.281 56.807 13.098 11.883 12.294 16.127 27.348 13.686 44.715-2.459 17.493-12.143 29.709-26.355 38.27-9.4 5.664-20.12 7.586-31.714 6.08-10.428-1.356-19.08-5.278-27.253-11.314-3.238-2.39-5.305-4.836-5.014-9.322.445-6.835.117-13.72.708-20.758 4.386 9.823 10.545 17.743 19.869 23.028 9.57 5.424 19.857 5.334 29.831 2.722 14.84-3.885 27.487-21.68 26.612-36.972-1.074-18.768-11.468-32.834-29.694-37.464-14.126-3.59-34.761.224-46.529 27.068-1.068-1.932-.656-3.74-.658-5.42-.032-24.157.122-48.315-.147-72.47-.052-4.666 1.305-6.216 6.174-5.442zm153.766 146c-13.406 1.098-24.681-2.492-33.497-12.255-6.349-7.031-10.121-15.451-10.24-24.96-.256-20.477.067-40.962-.202-61.44-.053-4.095 1.385-4.486 4.784-4.418 9.336.184 9.339.045 9.339 9.228 0 16.984.06 33.968-.02 50.952-.061 13.228 7.076 24.312 20.477 28.081 14.222 4 30.198-7.505 30.454-22.24.354-20.474.196-40.96-.008-61.439-.038-3.723.838-4.701 4.595-4.613 10.497.249 10.502.055 10.502 10.592v90.173c-3.97-.9-6.358-4.067-8.967-6.423-2.769-2.502-3.876-1.855-6.233.31-5.73 5.26-12.666 8.077-20.984 8.452zm243.236-103h56.287l-42.206 86c13.211 0 26.041.118 38.866-.081 3.276-.051 4.115.84 4.086 4.093-.096 10.987.043 10.988-11.105 10.988h-55.517c8.528-17.404 16.68-34.135 24.921-50.821a2420.051 2420.051 0 0 1 15.643-31.073c1.575-3.077 1.293-4.247-2.572-4.176-10.828.2-21.666-.076-32.493.157-3.356.072-4.455-.958-3.989-4.141.167-1.142.027-2.33.027-3.496 0-7.45 0-7.45 8.052-7.45zM223.78 863.284c3.4 2.083 4.037 3.628.284 5.765-8.89 5.063-18.381 7.876-28.571 7.914-24.825.093-48.089-19.85-51.626-43.488-2.144-14.33-.119-27.472 8.177-39.307 8.596-12.263 19.971-20.084 35.302-22.326 14.023-2.05 26.537.59 38.455 8.013 3.222 2.007 2.178 3.295.185 4.5-1.734 1.05-3.104 2.382-4.553 3.69-2.87 2.59-5.412 2.997-9.37 1.122-23.003-10.898-47.91 2.047-53.73 25.476-5.542 22.308 8 42.356 29.999 47.11 7.035 1.52 15.06 1.468 21.696-2.013 4.722-2.476 7.832-1.953 11.282 1.286.724.678 1.476 1.327 2.47 2.258zM476 819c0 17.33-.091 34.163.08 50.992.032 3.258-.815 4.134-4.084 4.095-9.994-.12-9.996.03-9.996-10.099 0-42.993.067-85.987-.106-128.98-.017-4.15.932-5.283 5.113-5.12 8.983.351 8.993.1 8.993 9.124V819zm-92-12v-34.028c2.348 1.799 4.743 3.004 6.241 4.914 3.064 3.905 5.946 3.59 9.517.838 11.352-8.752 23.915-9.387 37.605-5.255-2.152 3.84-4.402 7.35-6.122 11.105-1.074 2.344-2.904 1.613-4.148 1.315-15.822-3.788-29.145 11.373-29.108 24.228.057 19.813-.109 39.629.122 59.44.045 3.86-1.051 4.627-4.671 4.536-9.431-.238-9.436-.055-9.436-9.648V807zm343.63 167.419c.336 18.166.38 35.977.334 53.788-.005 2.133 1.321 5.444-3.171 4.806-3.072-.436-7.964 1.9-6.838-4.679.064-.372-.265-.813-.594-1.736-4.88 5.424-10.224 8.611-17.627 8.578-7.09-.031-13.624-.964-19.232-5.381-5.015-3.95-7.873-9.657-9.242-15.563-2.684-11.567-1.459-22.596 5.537-32.968 4.273-6.336 17.686-11.355 24.748-9.713 6.004 1.397 11.13 3.657 16.107 8.376-.144-9.358 6.067-4.893 9.978-5.508zm-110.435 4.273c7.491 6.15 11.37 14.051 11.657 23.074.512 16.06-10.611 31.908-29.095 33.27-14.289 1.053-25.339-4.163-32.008-16.882-9.634-18.373.151-40.547 19.971-45.905 10.461-2.828 20.477-.584 29.475 6.443zM1052 869.862c.392 3.091-.303 4.204-3.357 4.228-10.644.086-10.643.229-10.643-10.458 0-28.498.08-56.996-.093-85.493-.024-3.919.544-5.457 4.971-5.264 9.11.398 9.122.108 9.122 9.008v87.979zm-271.688 159.334c-7.766 8.996-32.365 8.17-37.203-3.725-.976-2.397-2.357-5.016 1.53-5.55 2.177-.3 4.047-6.246 7.071-.007 3.19 6.582 11.539 8.423 18.264 5.71 4.358-1.758 6.768-8.443 2.835-12.436-3.543-3.596-7.837-5.571-12.423-7.188-3.826-1.35-7.31-3.38-10.554-5.73-8.613-6.24-7.024-22.377 3.823-27.02 9.269-3.967 20.546-3.265 27.519 5.435 1.407 1.756 4.26 3.389 1.55 5.947-4.254 4.013-6.55 3.975-9.18.412-3.108-4.215-8.106-6.333-12.677-4.915-3.424 1.063-6.142 3.524-6.735 7.084-.606 3.64 1.865 6.272 4.943 7.724 4.757 2.243 9.836 3.807 14.576 6.08 11.28 5.409 14.18 17.417 6.661 28.179zM539 993.999c0-18.328.198-36.16-.134-53.98-.087-4.64 2.29-4.052 5.124-4.042 2.81.01 5.201-.643 5.143 4.021-.29 23.323.114 46.655-.276 69.974-.125 7.5-.872 15.201-7.22 20.989-6.769 6.17-25.996 6.747-33.164-4.929-.733-1.194-.286-1.835.525-2.493.357-.29 1.04-.26 1.287-.59 3.2-4.26 5.604-3.829 9.502-.025 6.324 6.172 15.78 3.122 17.902-5.254.834-3.292 1.097-6.768 1.26-10.178.209-4.322.051-8.661.051-13.493zm106-4.995v-9.498c.001-5.406 2.108-6.855 7.513-5.558 1.762.423 1.474 1.474 1.475 2.555.015 17.997.029 35.994 0 53.991-.008 4.665-3.6 1.923-5.508 2.422-2.08.543-3.612.182-3.566-2.92.2-13.495.086-26.995.086-40.992zM1042.109 746c-3.12.408-4.642-.358-4.125-3.384.11-.647.016-1.33.016-1.997-.005-11.077-.007-11.006 10.892-10.677 2.238.068 3.495.395 3.135 2.963-.16 1.144-.027 2.33-.027 3.496 0 9.599 0 9.599-9.891 9.599zM643 950.263c1.039-4.51 3.901-5.554 7.758-5.302 2.544.166 4.494 1.252 4.986 3.621.627 3.023.964 6.23-2.246 8.413-2.285 1.553-4.423 1.118-6.852.258-3.34-1.183-3.945-3.545-3.645-6.99z"/>
    <path fill="#000" fill-opacity= "1" d="M269.213 803.406c7.67-11.475 18.498-17.548 31.51-18.18 12.998-.63 23.987 5.045 32.125 15.376 4.982 6.325 7.8 13.837 8.016 21.785.335 12.32-4.242 23.161-13.85 30.899-13.528 10.893-28.717 12.3-44.011 4.056-12.116-6.529-18.312-17.234-19.086-31.185-.448-8.076 1.279-15.433 5.296-22.751zm267.897-14.418c12.37-5.526 23.893-5.054 35.368 1.791 13.268 7.913 19.73 19.672 19.386 34.689-.453 19.8-18.102 36.7-36.846 36.73-10.869.018-20.324-2.773-28.052-9.956-6.986-6.493-11.29-14.736-12.017-24.635-.901-12.265 2.753-22.752 11.425-31.425 2.987-2.988 6.551-5.267 10.736-7.194zM995 827.682c-1.509 9.844-5.614 17.668-12.488 24.473-13.097 12.965-38.005 12.842-50.695 1.425-14.137-12.72-17.643-30.48-10.173-46.486 5.619-12.04 15.68-19.002 29.242-21.268 9.21-1.539 17.56.278 24.985 4.83 8.256 5.062 14.553 12.334 17.46 22.067 1.43 4.787 1.801 9.59 1.668 14.96zm-282.747 193.572c-5.689 5.229-11.846 7.224-19.017 4.723-7.287-2.541-10.827-7.89-12.35-15.36-1.67-8.187-.848-15.581 3.623-22.748 4.949-7.934 13.054-8.807 19.598-7.689 6.803 1.163 12.827 8.23 13.864 15.283 1.068 7.261.97 14.46-2.3 21.24-.757 1.57-2.087 2.865-3.418 4.55zm-111.315 4.776c-8.425 2.793-18.521-1.557-23.666-10.459-4.954-8.57-4.463-17.407.82-25.575 4.528-7 11.353-10.556 19.866-9.97 13.774.95 24.8 15.422 19.715 30.665-2.64 7.917-7.723 13.564-16.735 15.339z"/>
</svg>